<svg width="24" height="25" viewBox="0 0 24 25" fill="none" xmlns="http://www.w3.org/2000/svg">
<g clip-path="url(#clip0_238_242)">
<rect y="0.5" width="24" height="24" rx="4" fill="#B7E396"/>
<path d="M16 13.5H8C7.72667 13.5 7.5 13.2733 7.5 13C7.5 12.7267 7.72667 12.5 8 12.5H16C16.2733 12.5 16.5 12.7267 16.5 13C16.5 13.2733 16.2733 13.5 16 13.5Z" fill="#292D32"/>
<path d="M12 17.5C11.7267 17.5 11.5 17.2733 11.5 17V9C11.5 8.72667 11.7267 8.5 12 8.5C12.2733 8.5 12.5 8.72667 12.5 9V17C12.5 17.2733 12.2733 17.5 12 17.5Z" fill="#292D32"/>
</g>
<defs>
<clipPath id="clip0_238_242">
<rect y="0.5" width="24" height="24" rx="4" fill="white"/>
</clipPath>
</defs>
</svg>
