<svg width="24" height="24" viewBox="0 0 24 24" fill="none" xmlns="http://www.w3.org/2000/svg">
<path d="M5.57 22.7C3.23 22.7 1.25 20.72 1.25 18.38V12.22C1.2 9.29999 2.28 6.54999 4.3 4.48999C6.32 2.43999 9.03 1.29999 11.95 1.29999C17.91 1.29999 22.75 6.14999 22.75 12.1V18.26C22.75 20.64 20.81 22.58 18.43 22.58C16.09 22.58 14.11 20.6 14.11 18.26V15.45C14.11 14 15.25 12.86 16.7 12.86C18.15 12.86 19.29 14 19.29 15.45V18.48C19.29 18.89 18.95 19.23 18.54 19.23C18.13 19.23 17.79 18.89 17.79 18.48V15.45C17.79 14.77 17.24 14.36 16.7 14.36C16.02 14.36 15.61 14.91 15.61 15.45V18.26C15.61 19.79 16.9 21.08 18.43 21.08C19.96 21.08 21.25 19.79 21.25 18.26V12.1C21.25 6.96999 17.08 2.79999 11.95 2.79999C9.44 2.79999 7.11 3.76999 5.37 5.53999C3.63 7.30999 2.7 9.67999 2.75 12.2V18.38C2.75 19.91 4.04 21.2 5.57 21.2C7.1 21.2 8.39 19.91 8.39 18.38V15.57C8.39 14.89 7.84 14.48 7.3 14.48C6.62 14.48 6.21 15.03 6.21 15.57V18.49C6.21 18.9 5.87 19.24 5.46 19.24C5.05 19.24 4.71 18.9 4.71 18.49V15.57C4.71 14.12 5.85 12.98 7.3 12.98C8.75 12.98 9.89 14.12 9.89 15.57V18.38C9.89 20.72 7.91 22.7 5.57 22.7Z" fill="#292D32"/>
</svg>
