<svg width="13" height="12" viewBox="0 0 13 12" fill="none" xmlns="http://www.w3.org/2000/svg">
<path d="M6.15427 10.375C3.46427 10.375 1.27927 8.19 1.27927 5.5C1.27927 2.81 3.46427 0.625 6.15427 0.625C8.84427 0.625 11.0293 2.81 11.0293 5.5C11.0293 8.19 8.84427 10.375 6.15427 10.375ZM6.15427 1.375C3.87927 1.375 2.02927 3.225 2.02927 5.5C2.02927 7.775 3.87927 9.625 6.15427 9.625C8.42927 9.625 10.2793 7.775 10.2793 5.5C10.2793 3.225 8.42927 1.375 6.15427 1.375Z" fill="#292D32"/>
<path d="M10.7343 11.395C10.6943 11.395 10.6543 11.39 10.6193 11.385C10.3843 11.355 9.95926 11.195 9.71927 10.48C9.59427 10.105 9.63927 9.73 9.84427 9.445C10.0493 9.16 10.3943 9 10.7893 9C11.2993 9 11.6993 9.195 11.8793 9.54C12.0593 9.885 12.0093 10.325 11.7243 10.75C11.3693 11.285 10.9843 11.395 10.7343 11.395ZM10.4343 10.245C10.5193 10.505 10.6393 10.635 10.7193 10.645C10.7993 10.655 10.9493 10.56 11.1043 10.335C11.2493 10.12 11.2593 9.965 11.2243 9.895C11.1893 9.825 11.0493 9.75 10.7893 9.75C10.6343 9.75 10.5193 9.8 10.4543 9.885C10.3943 9.97 10.3843 10.1 10.4343 10.245Z" fill="#292D32"/>
</svg>
