<svg width="8" height="8" viewBox="0 0 8 8" fill="none" xmlns="http://www.w3.org/2000/svg">
<path d="M3.16007 6.89667C2.9934 6.89667 2.87674 6.84 2.80674 6.78667C2.6734 6.69 2.46673 6.44 2.59673 5.88L2.78673 5.06C2.80339 4.99 2.76673 4.86333 2.71673 4.81L2.0534 4.14667C1.7034 3.79667 1.7334 3.49333 1.78006 3.34333C1.82673 3.19333 1.98006 2.93 2.46673 2.84666L3.31674 2.70667C3.38007 2.69667 3.4834 2.62 3.51006 2.56333L3.98007 1.62333C4.20673 1.17 4.50673 1.10333 4.66673 1.10333C4.82673 1.10333 5.12673 1.17 5.3534 1.62333L5.8234 2.56333C5.8534 2.62 5.95339 2.69667 6.01673 2.70667L6.86673 2.84666C7.3534 2.92666 7.50673 3.19333 7.5534 3.34333C7.60007 3.49333 7.63006 3.79667 7.28006 4.14667L6.61673 4.81C6.56673 4.86 6.53007 4.99 6.54674 5.06L6.73673 5.88C6.86673 6.44333 6.66006 6.69 6.52673 6.78667C6.39339 6.88333 6.09673 7.00667 5.59673 6.71L4.80006 6.23667C4.7334 6.19667 4.59339 6.19667 4.52673 6.23667L3.73007 6.71C3.50007 6.85 3.30673 6.89667 3.16007 6.89667ZM4.66673 1.60333C4.6134 1.60333 4.51673 1.66666 4.42673 1.84666L3.95673 2.78667C3.85673 2.99 3.62007 3.16334 3.39673 3.2L2.54674 3.34C2.35674 3.37333 2.27007 3.44334 2.2534 3.49667C2.23673 3.55 2.26673 3.65667 2.40339 3.79333L3.06674 4.45667C3.23674 4.62667 3.32673 4.93667 3.2734 5.17L3.0834 5.99C3.02673 6.22667 3.06339 6.35333 3.10006 6.38333C3.13673 6.41 3.27006 6.40667 3.47673 6.28L4.27673 5.80667C4.50006 5.67333 4.83674 5.67333 5.05674 5.80667L5.8534 6.28C6.0634 6.40333 6.19673 6.41 6.2334 6.38333C6.27007 6.35666 6.30673 6.23 6.25006 5.99L6.06006 5.17C6.00673 4.93333 6.09339 4.62667 6.26673 4.45667L6.93007 3.79333C7.06673 3.65667 7.09673 3.54667 7.08006 3.49667C7.06339 3.44667 6.97673 3.37333 6.78673 3.34L5.93673 3.2C5.7134 3.16334 5.47673 2.99 5.37673 2.78667L4.90673 1.84666C4.81673 1.66666 4.72006 1.60333 4.66673 1.60333Z" fill="#97C93C"/>
<path d="M2.66666 1.91667H0.666664C0.529997 1.91667 0.416664 1.80333 0.416664 1.66667C0.416664 1.53 0.529997 1.41667 0.666664 1.41667H2.66666C2.80333 1.41667 2.91666 1.53 2.91666 1.66667C2.91666 1.80333 2.80333 1.91667 2.66666 1.91667Z" fill="#97C93C"/>
<path d="M1.66666 6.58333H0.666664C0.529997 6.58333 0.416664 6.47 0.416664 6.33333C0.416664 6.19667 0.529997 6.08333 0.666664 6.08333H1.66666C1.80333 6.08333 1.91666 6.19667 1.91666 6.33333C1.91666 6.47 1.80333 6.58333 1.66666 6.58333Z" fill="#97C93C"/>
<path d="M0.999997 4.25H0.666664C0.529997 4.25 0.416664 4.13667 0.416664 4C0.416664 3.86333 0.529997 3.75 0.666664 3.75H0.999997C1.13666 3.75 1.25 3.86333 1.25 4C1.25 4.13667 1.13666 4.25 0.999997 4.25Z" fill="#97C93C"/>
</svg>
